<?xml version="1.0" encoding="utf-8"?>
<!-- Generator: Adobe Illustrator 15.0.0, SVG Export Plug-In . SVG Version: 6.00 Build 0)  -->
<!DOCTYPE svg PUBLIC "-//W3C//DTD SVG 1.1//EN" "http://www.w3.org/Graphics/SVG/1.1/DTD/svg11.dtd">
<svg version="1.1" id="Layer_1" xmlns="http://www.w3.org/2000/svg" xmlns:xlink="http://www.w3.org/1999/xlink" x="0px" y="0px"
	 width="1368px" height="936px" viewBox="0 0 1368 936" enable-background="new 0 0 1368 936" xml:space="preserve">
<g>
	<path fill="#535554" d="M487.442,499.5c-2.083-0.802-3.445-2.484-3.445-4.728c0-2.724,2.244-4.968,4.968-4.968
		c0.801,0,1.442,0.16,2.003,0.4c3.525,1.603,7.291,2.564,11.858,2.564c8.333,0,12.259-4.006,12.259-11.698v-2.083
		c-3.605,4.326-7.532,6.971-14.022,6.971c-10.015,0-19.069-7.291-19.069-20.031v-0.16c0-12.82,9.214-20.031,19.069-20.031
		c6.65,0,10.577,2.804,13.862,6.41v-0.08c0-3.285,2.724-6.009,6.089-6.009s6.089,2.724,6.089,6.089v27.643
		c0,7.692-1.843,13.301-5.448,16.906c-4.006,4.007-10.176,5.77-18.509,5.77C497.458,502.465,492.49,501.503,487.442,499.5z
		 M515.085,465.928v-0.16c0-5.849-4.567-9.935-10.496-9.935s-10.417,4.086-10.417,9.935v0.16c0,5.93,4.487,9.936,10.417,9.936
		S515.085,471.777,515.085,465.928z"/>
	<path fill="#535554" d="M624.043,490.446c-12.9,0-22.435-9.055-22.435-22.195v-0.16c0-12.259,8.733-22.354,21.233-22.354
		c14.342,0,20.672,11.778,20.672,20.672c0,3.526-2.484,5.849-5.689,5.849h-24.117c1.202,5.528,5.048,8.413,10.496,8.413
		c3.365,0,6.17-1.042,8.653-2.885c0.882-0.641,1.683-0.961,2.965-0.961c2.724,0,4.728,2.083,4.728,4.807
		c0,1.603-0.721,2.805-1.603,3.606C635.18,488.442,630.293,490.446,624.043,490.446z M631.895,464.646
		c-0.721-5.448-3.926-9.134-9.054-9.134c-5.048,0-8.333,3.605-9.294,9.134H631.895z"/>
	<path fill="#535554" d="M652.804,452.146c0-3.365,2.725-6.089,6.09-6.089c3.365,0,6.089,2.724,6.089,6.089v0.481
		c2.804-3.605,6.41-6.891,12.579-6.891c9.214,0,14.583,6.089,14.583,15.944v22.195c0,3.365-2.724,6.089-6.089,6.089
		c-3.366,0-6.09-2.724-6.09-6.089v-18.349c0-5.769-2.724-8.733-7.371-8.733c-4.647,0-7.612,2.964-7.612,8.733v18.349
		c0,3.365-2.725,6.089-6.089,6.089c-3.365,0-6.09-2.724-6.09-6.089V452.146z"/>
	<path fill="#535554" d="M702.717,436.603c0-3.365,2.725-6.089,6.09-6.089s6.089,2.724,6.089,6.089v16.105
		c2.965-4.006,7.051-6.971,13.381-6.971c10.016,0,19.551,7.852,19.551,22.194v0.16c0,14.342-9.375,22.194-19.551,22.194
		c-6.49,0-10.496-2.964-13.381-6.409v0.08c0,3.285-2.724,6.009-6.089,6.009s-6.09-2.724-6.09-6.089V436.603z M735.647,468.091v-0.16
		c0-7.131-4.807-11.858-10.496-11.858c-5.688,0-10.416,4.727-10.416,11.858v0.16c0,7.131,4.728,11.858,10.416,11.858
		C730.841,479.949,735.647,475.303,735.647,468.091z"/>
	<path fill="#535554" d="M777.147,490.446c-12.899,0-22.435-9.055-22.435-22.195v-0.16c0-12.259,8.733-22.354,21.232-22.354
		c14.343,0,20.672,11.778,20.672,20.672c0,3.526-2.483,5.849-5.688,5.849h-24.117c1.202,5.528,5.048,8.413,10.496,8.413
		c3.365,0,6.17-1.042,8.653-2.885c0.882-0.641,1.683-0.961,2.965-0.961c2.725,0,4.728,2.083,4.728,4.807
		c0,1.603-0.722,2.805-1.603,3.606C788.285,488.442,783.397,490.446,777.147,490.446z M785,464.646
		c-0.722-5.448-3.927-9.134-9.055-9.134c-5.048,0-8.332,3.605-9.294,9.134H785z"/>
	<path fill="#535554" d="M805.909,452.146c0-3.365,2.725-6.089,6.09-6.089s6.089,2.724,6.089,6.089v1.923
		c1.763-4.167,4.647-8.013,8.253-8.013c3.766,0,5.93,2.484,5.93,5.929c0,3.205-2.084,5.128-4.567,5.689
		c-6.17,1.442-9.615,6.169-9.615,14.823v11.378c0,3.365-2.724,6.089-6.089,6.089s-6.09-2.724-6.09-6.089V452.146z"/>
	<path fill="#535554" d="M842.123,499.5c-2.083-0.802-3.445-2.484-3.445-4.728c0-2.724,2.244-4.968,4.968-4.968
		c0.802,0,1.442,0.16,2.003,0.4c3.525,1.603,7.292,2.564,11.858,2.564c8.333,0,12.259-4.006,12.259-11.698v-2.083
		c-3.605,4.326-7.531,6.971-14.021,6.971c-10.016,0-19.069-7.291-19.069-20.031v-0.16c0-12.82,9.214-20.031,19.069-20.031
		c6.65,0,10.576,2.804,13.861,6.41v-0.08c0-3.285,2.725-6.009,6.09-6.009s6.089,2.724,6.089,6.089v27.643
		c0,7.692-1.843,13.301-5.448,16.906c-4.006,4.007-10.176,5.77-18.509,5.77C852.139,502.465,847.171,501.503,842.123,499.5z
		 M869.766,465.928v-0.16c0-5.849-4.566-9.935-10.496-9.935c-5.929,0-10.416,4.086-10.416,9.935v0.16
		c0,5.93,4.487,9.936,10.416,9.936C865.199,475.863,869.766,471.777,869.766,465.928z"/>
</g>
<path fill="#2BAC3A" d="M569.661,461.375v-9.465c0-3.041,2.492-5.524,5.532-5.524c3.041,0,5.533,2.483,5.533,5.524v9.465h9.213
	c3.121,0,5.686,2.555,5.686,5.686c0,3.112-2.564,5.686-5.686,5.686h-9.213v9.446c0,3.06-2.492,5.542-5.533,5.542
	c-3.04,0-5.532-2.482-5.532-5.542v-9.446h-9.213c-3.122,0-5.686-2.573-5.686-5.686c0-3.131,2.563-5.686,5.686-5.686H569.661z"/>
<path fill="#E8352B" d="M542.222,450.795c3.202,0,5.848,2.645,5.848,5.848v25.073c0,3.203-2.646,5.848-5.848,5.848
	c-3.203,0-5.849-2.645-5.849-5.848v-25.073C536.373,453.439,539.019,450.795,542.222,450.795z"/>
</svg>
